<?xml version="1.0" encoding="UTF-8"?>
<svg xmlns="http://www.w3.org/2000/svg" width="512" height="512" viewBox="0 0 512 512" role="img" aria-label="Ilustracja: Hala Stulecia">
  <defs>
    <linearGradient id="bg" x1="0" y1="0" x2="1" y2="1">
      <stop offset="0" stop-color="#081b44" />
      <stop offset="0.55" stop-color="#1e4aa5" />
      <stop offset="1" stop-color="#ff9b2f" />
    </linearGradient>
    <radialGradient id="glow" cx="78%" cy="18%" r="70%">
      <stop offset="0" stop-color="#ffd08a" stop-opacity="0.95" />
      <stop offset="0.42" stop-color="#ffd08a" stop-opacity="0.35" />
      <stop offset="1" stop-color="#ff9b2f" stop-opacity="0" />
    </radialGradient>
    <linearGradient id="vignette" x1="0" y1="0" x2="0" y2="1">
      <stop offset="0" stop-color="#0b1233" stop-opacity="0" />
      <stop offset="1" stop-color="#0b1233" stop-opacity="0.78" />
    </linearGradient>
    <linearGradient id="inkGrad" x1="0" y1="0" x2="0" y2="1">
      <stop offset="0" stop-color="#10357a" stop-opacity="0.92" />
      <stop offset="1" stop-color="#07122c" stop-opacity="1" />
    </linearGradient>
    <filter id="softShadow" x="-20%" y="-20%" width="140%" height="140%">
      <feDropShadow dx="0" dy="18" stdDeviation="14" flood-color="#000" flood-opacity="0.35" />
    </filter>
    <filter id="grain" x="-20%" y="-20%" width="140%" height="140%">
      <feTurbulence type="fractalNoise" baseFrequency="0.85" numOctaves="4" seed="710" />
      <feColorMatrix type="saturate" values="0" />
      <feComponentTransfer>
        <feFuncA type="table" tableValues="0 0.22" />
      </feComponentTransfer>
    </filter>
    <filter id="bokeh" x="-30%" y="-30%" width="160%" height="160%">
      <feGaussianBlur stdDeviation="6" />
    </filter>
  </defs>

  <rect x="0" y="0" width="512" height="512" rx="84" fill="url(#bg)" />
  <rect x="0" y="0" width="512" height="512" rx="84" fill="url(#glow)" />

  <g filter="url(#bokeh)">
    <circle cx="237" cy="83" r="10" fill="#ffd08a" opacity="0.116" />
    <circle cx="329" cy="81" r="17" fill="#ffd08a" opacity="0.099" />
    <circle cx="397" cy="166" r="20" fill="#ffd08a" opacity="0.115" />
    <circle cx="355" cy="232" r="25" fill="#ffd08a" opacity="0.147" />
    <circle cx="216" cy="133" r="27" fill="#ffd08a" opacity="0.169" />
    <circle cx="231" cy="229" r="33" fill="#ffd08a" opacity="0.100" />
    <circle cx="428" cy="158" r="25" fill="#ffd08a" opacity="0.095" />
  </g>

  <g opacity="0.92">
    <path d="M44 206c40-20 80-28 120-26 34 2 66 12 98 24 28 10 58 18 92 18 30 0 60-6 86-18v74H44z" fill="#0d2b66" opacity="0.55" />
    <path d="M44 250c48-20 94-28 138-26 36 2 70 10 102 22 30 10 60 16 94 16 28 0 54-6 78-16v90H44z" fill="#0a234f" opacity="0.48" />
  </g>

  <g filter="url(#softShadow)">
    
      <path fill="url(#inkGrad)" stroke="#fcd116" stroke-opacity="0.55" stroke-width="4" stroke-linejoin="round" d="M112 428v-86c0-88 72-160 160-160s160 72 160 160v86H112z"/>
      <path fill="url(#inkGrad)" opacity="0.9" d="M142 428v-78c0-70 58-128 128-128s128 58 128 128v78H142z"/>
      <path fill="none" stroke="#fcd116" stroke-opacity="0.45" stroke-width="3" d="M142 350h256"/>
      <path fill="none" stroke="#fcd116" stroke-opacity="0.45" stroke-width="3" d="M270 222v206"/>
    
  </g>

  <rect x="0" y="0" width="512" height="512" rx="84" fill="url(#vignette)" />
  <rect x="0" y="0" width="512" height="512" rx="84" filter="url(#grain)" opacity="0.35" />
</svg>
