<?xml version="1.0" encoding="UTF-8"?>
<svg xmlns="http://www.w3.org/2000/svg" width="512" height="512" viewBox="0 0 512 512" role="img" aria-label="Ilustracja: Kopernik (Toruń)">
  <defs>
    <linearGradient id="bg" x1="0" y1="0" x2="1" y2="1">
      <stop offset="0" stop-color="#07122c" />
      <stop offset="0.55" stop-color="#2e4aa8" />
      <stop offset="1" stop-color="#fcd116" />
    </linearGradient>
    <radialGradient id="glow" cx="78%" cy="18%" r="70%">
      <stop offset="0" stop-color="#fff2b0" stop-opacity="0.95" />
      <stop offset="0.42" stop-color="#fff2b0" stop-opacity="0.35" />
      <stop offset="1" stop-color="#fcd116" stop-opacity="0" />
    </radialGradient>
    <linearGradient id="vignette" x1="0" y1="0" x2="0" y2="1">
      <stop offset="0" stop-color="#0b1233" stop-opacity="0" />
      <stop offset="1" stop-color="#0b1233" stop-opacity="0.78" />
    </linearGradient>
    <linearGradient id="inkGrad" x1="0" y1="0" x2="0" y2="1">
      <stop offset="0" stop-color="#10357a" stop-opacity="0.92" />
      <stop offset="1" stop-color="#07122c" stop-opacity="1" />
    </linearGradient>
    <filter id="softShadow" x="-20%" y="-20%" width="140%" height="140%">
      <feDropShadow dx="0" dy="18" stdDeviation="14" flood-color="#000" flood-opacity="0.35" />
    </filter>
    <filter id="grain" x="-20%" y="-20%" width="140%" height="140%">
      <feTurbulence type="fractalNoise" baseFrequency="0.85" numOctaves="4" seed="41" />
      <feColorMatrix type="saturate" values="0" />
      <feComponentTransfer>
        <feFuncA type="table" tableValues="0 0.22" />
      </feComponentTransfer>
    </filter>
    <filter id="bokeh" x="-30%" y="-30%" width="160%" height="160%">
      <feGaussianBlur stdDeviation="6" />
    </filter>
  </defs>

  <rect x="0" y="0" width="512" height="512" rx="84" fill="url(#bg)" />
  <rect x="0" y="0" width="512" height="512" rx="84" fill="url(#glow)" />

  <g filter="url(#bokeh)">
    <circle cx="100" cy="66" r="30" fill="#fff2b0" opacity="0.163" />
    <circle cx="408" cy="138" r="30" fill="#fff2b0" opacity="0.185" />
    <circle cx="405" cy="201" r="31" fill="#fff2b0" opacity="0.199" />
    <circle cx="438" cy="140" r="10" fill="#fff2b0" opacity="0.174" />
    <circle cx="110" cy="97" r="26" fill="#fff2b0" opacity="0.095" />
    <circle cx="427" cy="124" r="32" fill="#fff2b0" opacity="0.084" />
    <circle cx="236" cy="204" r="34" fill="#fff2b0" opacity="0.106" />
  </g>

  <g opacity="0.92">
    <path d="M44 206c40-20 80-28 120-26 34 2 66 12 98 24 28 10 58 18 92 18 30 0 60-6 86-18v74H44z" fill="#0d2b66" opacity="0.55" />
    <path d="M44 250c48-20 94-28 138-26 36 2 70 10 102 22 30 10 60 16 94 16 28 0 54-6 78-16v90H44z" fill="#0a234f" opacity="0.48" />
  </g>

  <g filter="url(#softShadow)">
    
      <path fill="url(#inkGrad)" stroke="#fcd116" stroke-opacity="0.55" stroke-width="4" stroke-linejoin="round" d="M128 428v-84l92-66 72 44 92-66 40 58-92 66v48H128z"/>
      <path fill="none" stroke="#fcd116" stroke-opacity="0.55" stroke-width="4" d="M256 172c44 0 80 34 80 76"/>
      <path fill="none" stroke="#fcd116" stroke-opacity="0.55" stroke-width="4" d="M256 172c-44 0-80 34-80 76"/>
      <circle cx="256" cy="172" r="10" fill="#fcd116" opacity="0.85"/>
      <path fill="none" stroke="#fcd116" stroke-opacity="0.35" stroke-width="3" d="M170 232l-28-18"/>
      <path fill="none" stroke="#fcd116" stroke-opacity="0.35" stroke-width="3" d="M342 232l28-18"/>
    
  </g>

  <rect x="0" y="0" width="512" height="512" rx="84" fill="url(#vignette)" />
  <rect x="0" y="0" width="512" height="512" rx="84" filter="url(#grain)" opacity="0.35" />
</svg>
