<?xml version="1.0" encoding="UTF-8"?>
<svg xmlns="http://www.w3.org/2000/svg" width="512" height="512" viewBox="0 0 512 512" role="img" aria-label="Ilustracja: Molo w Sopocie">
  <defs>
    <linearGradient id="bg" x1="0" y1="0" x2="1" y2="1">
      <stop offset="0" stop-color="#07122c" />
      <stop offset="0.55" stop-color="#205a73" />
      <stop offset="1" stop-color="#ff8c3a" />
    </linearGradient>
    <radialGradient id="glow" cx="78%" cy="18%" r="70%">
      <stop offset="0" stop-color="#ffd19b" stop-opacity="0.95" />
      <stop offset="0.42" stop-color="#ffd19b" stop-opacity="0.35" />
      <stop offset="1" stop-color="#ff8c3a" stop-opacity="0" />
    </radialGradient>
    <linearGradient id="vignette" x1="0" y1="0" x2="0" y2="1">
      <stop offset="0" stop-color="#0b1233" stop-opacity="0" />
      <stop offset="1" stop-color="#0b1233" stop-opacity="0.78" />
    </linearGradient>
    <linearGradient id="inkGrad" x1="0" y1="0" x2="0" y2="1">
      <stop offset="0" stop-color="#10357a" stop-opacity="0.92" />
      <stop offset="1" stop-color="#07122c" stop-opacity="1" />
    </linearGradient>
    <filter id="softShadow" x="-20%" y="-20%" width="140%" height="140%">
      <feDropShadow dx="0" dy="18" stdDeviation="14" flood-color="#000" flood-opacity="0.35" />
    </filter>
    <filter id="grain" x="-20%" y="-20%" width="140%" height="140%">
      <feTurbulence type="fractalNoise" baseFrequency="0.85" numOctaves="4" seed="970" />
      <feColorMatrix type="saturate" values="0" />
      <feComponentTransfer>
        <feFuncA type="table" tableValues="0 0.22" />
      </feComponentTransfer>
    </filter>
    <filter id="bokeh" x="-30%" y="-30%" width="160%" height="160%">
      <feGaussianBlur stdDeviation="6" />
    </filter>
  </defs>

  <rect x="0" y="0" width="512" height="512" rx="84" fill="url(#bg)" />
  <rect x="0" y="0" width="512" height="512" rx="84" fill="url(#glow)" />

  <g filter="url(#bokeh)">
    <circle cx="194" cy="110" r="34" fill="#ffd19b" opacity="0.134" />
    <circle cx="259" cy="134" r="20" fill="#ffd19b" opacity="0.094" />
    <circle cx="317" cy="143" r="19" fill="#ffd19b" opacity="0.119" />
    <circle cx="176" cy="156" r="33" fill="#ffd19b" opacity="0.087" />
    <circle cx="383" cy="223" r="34" fill="#ffd19b" opacity="0.187" />
    <circle cx="89" cy="54" r="15" fill="#ffd19b" opacity="0.127" />
    <circle cx="203" cy="65" r="28" fill="#ffd19b" opacity="0.149" />
  </g>

  <g opacity="0.92">
    <path d="M44 206c40-20 80-28 120-26 34 2 66 12 98 24 28 10 58 18 92 18 30 0 60-6 86-18v74H44z" fill="#0d2b66" opacity="0.55" />
    <path d="M44 250c48-20 94-28 138-26 36 2 70 10 102 22 30 10 60 16 94 16 28 0 54-6 78-16v90H44z" fill="#0a234f" opacity="0.48" />
  </g>

  <g filter="url(#softShadow)">
    
      <path fill="#0b5d6a" opacity="0.55" d="M56 444c70-36 142-52 216-48 68 3 130 22 184 48v68H56z"/>
      <path fill="none" stroke="#fcd116" stroke-opacity="0.35" stroke-width="3" d="M56 448c70-36 142-52 216-48 68 3 130 22 184 48"/>
      <path fill="url(#inkGrad)" stroke="#fcd116" stroke-opacity="0.55" stroke-width="4" stroke-linejoin="round" d="M214 456l-24-146 132-112 30 36-116 98 20 124z"/>
      <path fill="url(#inkGrad)" opacity="0.88" d="M220 456h48v-30h-48z"/>
    
  </g>

  <rect x="0" y="0" width="512" height="512" rx="84" fill="url(#vignette)" />
  <rect x="0" y="0" width="512" height="512" rx="84" filter="url(#grain)" opacity="0.35" />
</svg>
