<?xml version="1.0" encoding="UTF-8"?>
<svg xmlns="http://www.w3.org/2000/svg" width="512" height="512" viewBox="0 0 512 512" role="img" aria-label="Ilustracja: Warszawa — Muzeum Powstania">
  <defs>
    <linearGradient id="bg" x1="0" y1="0" x2="1" y2="1">
      <stop offset="0" stop-color="#07122c" />
      <stop offset="0.55" stop-color="#1d6fb8" />
      <stop offset="1" stop-color="#ffb23f" />
    </linearGradient>
    <radialGradient id="glow" cx="78%" cy="18%" r="70%">
      <stop offset="0" stop-color="#ffe0a6" stop-opacity="0.95" />
      <stop offset="0.42" stop-color="#ffe0a6" stop-opacity="0.35" />
      <stop offset="1" stop-color="#ffb23f" stop-opacity="0" />
    </radialGradient>
    <linearGradient id="vignette" x1="0" y1="0" x2="0" y2="1">
      <stop offset="0" stop-color="#0b1233" stop-opacity="0" />
      <stop offset="1" stop-color="#0b1233" stop-opacity="0.78" />
    </linearGradient>
    <linearGradient id="inkGrad" x1="0" y1="0" x2="0" y2="1">
      <stop offset="0" stop-color="#10357a" stop-opacity="0.92" />
      <stop offset="1" stop-color="#07122c" stop-opacity="1" />
    </linearGradient>
    <filter id="softShadow" x="-20%" y="-20%" width="140%" height="140%">
      <feDropShadow dx="0" dy="18" stdDeviation="14" flood-color="#000" flood-opacity="0.35" />
    </filter>
    <filter id="grain" x="-20%" y="-20%" width="140%" height="140%">
      <feTurbulence type="fractalNoise" baseFrequency="0.85" numOctaves="4" seed="169" />
      <feColorMatrix type="saturate" values="0" />
      <feComponentTransfer>
        <feFuncA type="table" tableValues="0 0.22" />
      </feComponentTransfer>
    </filter>
    <filter id="bokeh" x="-30%" y="-30%" width="160%" height="160%">
      <feGaussianBlur stdDeviation="6" />
    </filter>
  </defs>

  <rect x="0" y="0" width="512" height="512" rx="84" fill="url(#bg)" />
  <rect x="0" y="0" width="512" height="512" rx="84" fill="url(#glow)" />

  <g filter="url(#bokeh)">
    <circle cx="118" cy="96" r="15" fill="#ffe0a6" opacity="0.098" />
    <circle cx="299" cy="109" r="17" fill="#ffe0a6" opacity="0.093" />
    <circle cx="91" cy="115" r="11" fill="#ffe0a6" opacity="0.130" />
    <circle cx="174" cy="166" r="35" fill="#ffe0a6" opacity="0.082" />
    <circle cx="391" cy="111" r="14" fill="#ffe0a6" opacity="0.149" />
    <circle cx="133" cy="237" r="11" fill="#ffe0a6" opacity="0.161" />
    <circle cx="347" cy="186" r="14" fill="#ffe0a6" opacity="0.112" />
  </g>

  <g opacity="0.92">
    <path d="M44 206c40-20 80-28 120-26 34 2 66 12 98 24 28 10 58 18 92 18 30 0 60-6 86-18v74H44z" fill="#0d2b66" opacity="0.55" />
    <path d="M44 250c48-20 94-28 138-26 36 2 70 10 102 22 30 10 60 16 94 16 28 0 54-6 78-16v90H44z" fill="#0a234f" opacity="0.48" />
  </g>

  <g filter="url(#softShadow)">
    
      <path fill="url(#inkGrad)" stroke="#fcd116" stroke-opacity="0.55" stroke-width="4" stroke-linejoin="round" d="M118 428v-92l92-62 76 44 108-76 44 64-92 62v60H118z"/>
      <path fill="none" stroke="#fcd116" stroke-opacity="0.55" stroke-width="4" d="M256 172c44 0 80 34 80 76"/>
      <path fill="none" stroke="#fcd116" stroke-opacity="0.55" stroke-width="4" d="M256 172c-44 0-80 34-80 76"/>
      <circle cx="256" cy="172" r="10" fill="#fcd116" opacity="0.85"/>
      <path fill="none" stroke="#fcd116" stroke-opacity="0.35" stroke-width="3" d="M170 232l-28-18"/>
      <path fill="none" stroke="#fcd116" stroke-opacity="0.35" stroke-width="3" d="M342 232l28-18"/>
    
  </g>

  <rect x="0" y="0" width="512" height="512" rx="84" fill="url(#vignette)" />
  <rect x="0" y="0" width="512" height="512" rx="84" filter="url(#grain)" opacity="0.35" />
</svg>
