<?xml version="1.0" encoding="UTF-8"?>
<svg xmlns="http://www.w3.org/2000/svg" width="512" height="512" viewBox="0 0 512 512" role="img" aria-label="Ilustracja: Ogrodzieniec">
  <defs>
    <linearGradient id="bg" x1="0" y1="0" x2="1" y2="1">
      <stop offset="0" stop-color="#07122c" />
      <stop offset="0.55" stop-color="#2e4aa8" />
      <stop offset="1" stop-color="#fcd116" />
    </linearGradient>
    <radialGradient id="glow" cx="78%" cy="18%" r="70%">
      <stop offset="0" stop-color="#fff2b0" stop-opacity="0.95" />
      <stop offset="0.42" stop-color="#fff2b0" stop-opacity="0.35" />
      <stop offset="1" stop-color="#fcd116" stop-opacity="0" />
    </radialGradient>
    <linearGradient id="vignette" x1="0" y1="0" x2="0" y2="1">
      <stop offset="0" stop-color="#0b1233" stop-opacity="0" />
      <stop offset="1" stop-color="#0b1233" stop-opacity="0.78" />
    </linearGradient>
    <linearGradient id="inkGrad" x1="0" y1="0" x2="0" y2="1">
      <stop offset="0" stop-color="#10357a" stop-opacity="0.92" />
      <stop offset="1" stop-color="#07122c" stop-opacity="1" />
    </linearGradient>
    <filter id="softShadow" x="-20%" y="-20%" width="140%" height="140%">
      <feDropShadow dx="0" dy="18" stdDeviation="14" flood-color="#000" flood-opacity="0.35" />
    </filter>
    <filter id="grain" x="-20%" y="-20%" width="140%" height="140%">
      <feTurbulence type="fractalNoise" baseFrequency="0.85" numOctaves="4" seed="253" />
      <feColorMatrix type="saturate" values="0" />
      <feComponentTransfer>
        <feFuncA type="table" tableValues="0 0.22" />
      </feComponentTransfer>
    </filter>
    <filter id="bokeh" x="-30%" y="-30%" width="160%" height="160%">
      <feGaussianBlur stdDeviation="6" />
    </filter>
  </defs>

  <rect x="0" y="0" width="512" height="512" rx="84" fill="url(#bg)" />
  <rect x="0" y="0" width="512" height="512" rx="84" fill="url(#glow)" />

  <g filter="url(#bokeh)">
    <circle cx="284" cy="205" r="33" fill="#fff2b0" opacity="0.182" />
    <circle cx="81" cy="55" r="34" fill="#fff2b0" opacity="0.093" />
    <circle cx="198" cy="219" r="14" fill="#fff2b0" opacity="0.116" />
    <circle cx="246" cy="167" r="36" fill="#fff2b0" opacity="0.173" />
    <circle cx="173" cy="101" r="29" fill="#fff2b0" opacity="0.081" />
    <circle cx="112" cy="69" r="15" fill="#fff2b0" opacity="0.155" />
    <circle cx="432" cy="86" r="21" fill="#fff2b0" opacity="0.101" />
  </g>

  <g opacity="0.92">
    <path d="M44 206c40-20 80-28 120-26 34 2 66 12 98 24 28 10 58 18 92 18 30 0 60-6 86-18v74H44z" fill="#0d2b66" opacity="0.55" />
    <path d="M44 250c48-20 94-28 138-26 36 2 70 10 102 22 30 10 60 16 94 16 28 0 54-6 78-16v90H44z" fill="#0a234f" opacity="0.48" />
  </g>

  <g filter="url(#softShadow)">
    
      <path fill="url(#inkGrad)" stroke="#fcd116" stroke-opacity="0.55" stroke-width="4" stroke-linejoin="round" d="M118 428v-92l48-34v-64l62-44v36l30 20v-40l62 44v64l48 34v92H118z"/>
      <path fill="none" stroke="#fcd116" stroke-opacity="0.55" stroke-width="4" d="M180 234l22-16"/>
      <path fill="none" stroke="#fcd116" stroke-opacity="0.55" stroke-width="4" d="M332 234l-22-16"/>
      <path fill="#0b1a3a" opacity="0.9" d="M232 428v-52c0-14 12-26 32-26s32 12 32 26v52z"/>
      <path fill="url(#inkGrad)" opacity="0.75" d="M92 452c50-30 104-44 162-42 54 2 108 18 166 42v60H92z"/>
    
  </g>

  <rect x="0" y="0" width="512" height="512" rx="84" fill="url(#vignette)" />
  <rect x="0" y="0" width="512" height="512" rx="84" filter="url(#grain)" opacity="0.35" />
</svg>
