<?xml version="1.0" encoding="UTF-8"?>
<svg xmlns="http://www.w3.org/2000/svg" width="512" height="512" viewBox="0 0 512 512" role="img" aria-label="Ilustracja: Poznań — Stary Rynek">
  <defs>
    <linearGradient id="bg" x1="0" y1="0" x2="1" y2="1">
      <stop offset="0" stop-color="#07122c" />
      <stop offset="0.55" stop-color="#1d6fb8" />
      <stop offset="1" stop-color="#ffb23f" />
    </linearGradient>
    <radialGradient id="glow" cx="78%" cy="18%" r="70%">
      <stop offset="0" stop-color="#ffe0a6" stop-opacity="0.95" />
      <stop offset="0.42" stop-color="#ffe0a6" stop-opacity="0.35" />
      <stop offset="1" stop-color="#ffb23f" stop-opacity="0" />
    </radialGradient>
    <linearGradient id="vignette" x1="0" y1="0" x2="0" y2="1">
      <stop offset="0" stop-color="#0b1233" stop-opacity="0" />
      <stop offset="1" stop-color="#0b1233" stop-opacity="0.78" />
    </linearGradient>
    <linearGradient id="inkGrad" x1="0" y1="0" x2="0" y2="1">
      <stop offset="0" stop-color="#10357a" stop-opacity="0.92" />
      <stop offset="1" stop-color="#07122c" stop-opacity="1" />
    </linearGradient>
    <filter id="softShadow" x="-20%" y="-20%" width="140%" height="140%">
      <feDropShadow dx="0" dy="18" stdDeviation="14" flood-color="#000" flood-opacity="0.35" />
    </filter>
    <filter id="grain" x="-20%" y="-20%" width="140%" height="140%">
      <feTurbulence type="fractalNoise" baseFrequency="0.85" numOctaves="4" seed="641" />
      <feColorMatrix type="saturate" values="0" />
      <feComponentTransfer>
        <feFuncA type="table" tableValues="0 0.22" />
      </feComponentTransfer>
    </filter>
    <filter id="bokeh" x="-30%" y="-30%" width="160%" height="160%">
      <feGaussianBlur stdDeviation="6" />
    </filter>
  </defs>

  <rect x="0" y="0" width="512" height="512" rx="84" fill="url(#bg)" />
  <rect x="0" y="0" width="512" height="512" rx="84" fill="url(#glow)" />

  <g filter="url(#bokeh)">
    <circle cx="432" cy="109" r="28" fill="#ffe0a6" opacity="0.198" />
    <circle cx="403" cy="189" r="18" fill="#ffe0a6" opacity="0.144" />
    <circle cx="93" cy="234" r="31" fill="#ffe0a6" opacity="0.175" />
    <circle cx="315" cy="159" r="11" fill="#ffe0a6" opacity="0.195" />
    <circle cx="297" cy="189" r="28" fill="#ffe0a6" opacity="0.130" />
    <circle cx="288" cy="180" r="21" fill="#ffe0a6" opacity="0.170" />
    <circle cx="99" cy="127" r="33" fill="#ffe0a6" opacity="0.108" />
  </g>

  <g opacity="0.92">
    <path d="M44 206c40-20 80-28 120-26 34 2 66 12 98 24 28 10 58 18 92 18 30 0 60-6 86-18v74H44z" fill="#0d2b66" opacity="0.55" />
    <path d="M44 250c48-20 94-28 138-26 36 2 70 10 102 22 30 10 60 16 94 16 28 0 54-6 78-16v90H44z" fill="#0a234f" opacity="0.48" />
  </g>

  <g filter="url(#softShadow)">
    
      <path fill="url(#inkGrad)" stroke="#fcd116" stroke-opacity="0.55" stroke-width="4" stroke-linejoin="round" d="M132 428v-104h92v-42l32-22v-32l44-28v-26l44 26v28l44 28v32l32 22v42h92v104H132z"/>
      <path fill="#0b1a3a" opacity="0.9" d="M238 428v-54c0-16 14-30 32-30s32 14 32 30v54z"/>
      <circle cx="256" cy="232" r="16" fill="none" stroke="#fcd116" stroke-opacity="0.55" stroke-width="4"/>
      <path d="M256 232l10-8" fill="none" stroke="#fcd116" stroke-opacity="0.55" stroke-width="4" stroke-linecap="round"/>
    
  </g>

  <rect x="0" y="0" width="512" height="512" rx="84" fill="url(#vignette)" />
  <rect x="0" y="0" width="512" height="512" rx="84" filter="url(#grain)" opacity="0.35" />
</svg>
