<?xml version="1.0" encoding="UTF-8"?>
<svg xmlns="http://www.w3.org/2000/svg" width="512" height="512" viewBox="0 0 512 512" role="img" aria-label="Ilustracja: Wawel">
  <defs>
    <linearGradient id="bg" x1="0" y1="0" x2="1" y2="1">
      <stop offset="0" stop-color="#07122c" />
      <stop offset="0.55" stop-color="#1d6fb8" />
      <stop offset="1" stop-color="#ffb23f" />
    </linearGradient>
    <radialGradient id="glow" cx="78%" cy="18%" r="70%">
      <stop offset="0" stop-color="#ffe0a6" stop-opacity="0.95" />
      <stop offset="0.42" stop-color="#ffe0a6" stop-opacity="0.35" />
      <stop offset="1" stop-color="#ffb23f" stop-opacity="0" />
    </radialGradient>
    <linearGradient id="vignette" x1="0" y1="0" x2="0" y2="1">
      <stop offset="0" stop-color="#0b1233" stop-opacity="0" />
      <stop offset="1" stop-color="#0b1233" stop-opacity="0.78" />
    </linearGradient>
    <linearGradient id="inkGrad" x1="0" y1="0" x2="0" y2="1">
      <stop offset="0" stop-color="#10357a" stop-opacity="0.92" />
      <stop offset="1" stop-color="#07122c" stop-opacity="1" />
    </linearGradient>
    <filter id="softShadow" x="-20%" y="-20%" width="140%" height="140%">
      <feDropShadow dx="0" dy="18" stdDeviation="14" flood-color="#000" flood-opacity="0.35" />
    </filter>
    <filter id="grain" x="-20%" y="-20%" width="140%" height="140%">
      <feTurbulence type="fractalNoise" baseFrequency="0.85" numOctaves="4" seed="215" />
      <feColorMatrix type="saturate" values="0" />
      <feComponentTransfer>
        <feFuncA type="table" tableValues="0 0.22" />
      </feComponentTransfer>
    </filter>
    <filter id="bokeh" x="-30%" y="-30%" width="160%" height="160%">
      <feGaussianBlur stdDeviation="6" />
    </filter>
  </defs>

  <rect x="0" y="0" width="512" height="512" rx="84" fill="url(#bg)" />
  <rect x="0" y="0" width="512" height="512" rx="84" fill="url(#glow)" />

  <g filter="url(#bokeh)">
    <circle cx="448" cy="153" r="34" fill="#ffe0a6" opacity="0.165" />
    <circle cx="226" cy="93" r="17" fill="#ffe0a6" opacity="0.138" />
    <circle cx="343" cy="166" r="34" fill="#ffe0a6" opacity="0.164" />
    <circle cx="213" cy="207" r="35" fill="#ffe0a6" opacity="0.157" />
    <circle cx="130" cy="57" r="35" fill="#ffe0a6" opacity="0.197" />
    <circle cx="277" cy="214" r="18" fill="#ffe0a6" opacity="0.123" />
    <circle cx="70" cy="86" r="11" fill="#ffe0a6" opacity="0.178" />
  </g>

  <g opacity="0.92">
    <path d="M44 206c40-20 80-28 120-26 34 2 66 12 98 24 28 10 58 18 92 18 30 0 60-6 86-18v74H44z" fill="#0d2b66" opacity="0.55" />
    <path d="M44 250c48-20 94-28 138-26 36 2 70 10 102 22 30 10 60 16 94 16 28 0 54-6 78-16v90H44z" fill="#0a234f" opacity="0.48" />
  </g>

  <g filter="url(#softShadow)">
    
      <path fill="url(#inkGrad)" stroke="#fcd116" stroke-opacity="0.55" stroke-width="4" stroke-linejoin="round" d="M134 342v-52l22-14v-18l20-14v-18l22 14v18l20 14v18l22-14v52h34v-72l26-18v-20l24-16v-20l26 16v20l24 16v20l26 18v72h26v86H134v-86z"/>
      <path fill="#0b1a3a" opacity="0.9" d="M172 428h44v-48c0-12-10-22-22-22s-22 10-22 22z"/>
      <path fill="#0b1a3a" opacity="0.9" d="M300 428h44v-62c0-12-10-22-22-22s-22 10-22 22z"/>
      
      
    
  </g>

  <rect x="0" y="0" width="512" height="512" rx="84" fill="url(#vignette)" />
  <rect x="0" y="0" width="512" height="512" rx="84" filter="url(#grain)" opacity="0.35" />
</svg>
