<?xml version="1.0" encoding="UTF-8"?>
<svg xmlns="http://www.w3.org/2000/svg" width="512" height="512" viewBox="0 0 512 512" role="img" aria-label="Ilustracja: Wrocław — Most Grunwaldzki">
  <defs>
    <linearGradient id="bg" x1="0" y1="0" x2="1" y2="1">
      <stop offset="0" stop-color="#07122c" />
      <stop offset="0.55" stop-color="#0b5d6a" />
      <stop offset="1" stop-color="#fcd116" />
    </linearGradient>
    <radialGradient id="glow" cx="78%" cy="18%" r="70%">
      <stop offset="0" stop-color="#ffe58a" stop-opacity="0.95" />
      <stop offset="0.42" stop-color="#ffe58a" stop-opacity="0.35" />
      <stop offset="1" stop-color="#fcd116" stop-opacity="0" />
    </radialGradient>
    <linearGradient id="vignette" x1="0" y1="0" x2="0" y2="1">
      <stop offset="0" stop-color="#0b1233" stop-opacity="0" />
      <stop offset="1" stop-color="#0b1233" stop-opacity="0.78" />
    </linearGradient>
    <linearGradient id="inkGrad" x1="0" y1="0" x2="0" y2="1">
      <stop offset="0" stop-color="#10357a" stop-opacity="0.92" />
      <stop offset="1" stop-color="#07122c" stop-opacity="1" />
    </linearGradient>
    <filter id="softShadow" x="-20%" y="-20%" width="140%" height="140%">
      <feDropShadow dx="0" dy="18" stdDeviation="14" flood-color="#000" flood-opacity="0.35" />
    </filter>
    <filter id="grain" x="-20%" y="-20%" width="140%" height="140%">
      <feTurbulence type="fractalNoise" baseFrequency="0.85" numOctaves="4" seed="243" />
      <feColorMatrix type="saturate" values="0" />
      <feComponentTransfer>
        <feFuncA type="table" tableValues="0 0.22" />
      </feComponentTransfer>
    </filter>
    <filter id="bokeh" x="-30%" y="-30%" width="160%" height="160%">
      <feGaussianBlur stdDeviation="6" />
    </filter>
  </defs>

  <rect x="0" y="0" width="512" height="512" rx="84" fill="url(#bg)" />
  <rect x="0" y="0" width="512" height="512" rx="84" fill="url(#glow)" />

  <g filter="url(#bokeh)">
    <circle cx="412" cy="147" r="28" fill="#ffe58a" opacity="0.197" />
    <circle cx="179" cy="102" r="25" fill="#ffe58a" opacity="0.148" />
    <circle cx="330" cy="139" r="11" fill="#ffe58a" opacity="0.081" />
    <circle cx="220" cy="194" r="18" fill="#ffe58a" opacity="0.138" />
    <circle cx="386" cy="200" r="16" fill="#ffe58a" opacity="0.190" />
    <circle cx="318" cy="221" r="17" fill="#ffe58a" opacity="0.157" />
    <circle cx="136" cy="218" r="26" fill="#ffe58a" opacity="0.172" />
  </g>

  <g opacity="0.92">
    <path d="M44 206c40-20 80-28 120-26 34 2 66 12 98 24 28 10 58 18 92 18 30 0 60-6 86-18v74H44z" fill="#0d2b66" opacity="0.55" />
    <path d="M44 250c48-20 94-28 138-26 36 2 70 10 102 22 30 10 60 16 94 16 28 0 54-6 78-16v90H44z" fill="#0a234f" opacity="0.48" />
  </g>

  <g filter="url(#softShadow)">
    
      <path fill="#0b5d6a" opacity="0.44" d="M72 456c64-28 130-42 200-40 62 2 118 16 168 34v62H72z"/>
      <path fill="url(#inkGrad)" stroke="#fcd116" stroke-opacity="0.55" stroke-width="4" stroke-linejoin="round" d="M116 428c26-56 68-84 128-84s102 28 128 84h-28c-22-40-56-60-100-60s-78 20-100 60h-28z"/>
      <path fill="url(#inkGrad)" stroke="#fcd116" stroke-opacity="0.55" stroke-width="4" stroke-linejoin="round" d="M140 428v-40h28v40h-28zm204 0v-40h28v40h-28z"/>
      <path fill="none" stroke="#fcd116" stroke-opacity="0.35" stroke-width="3" d="M116 428h256"/>
    
  </g>

  <rect x="0" y="0" width="512" height="512" rx="84" fill="url(#vignette)" />
  <rect x="0" y="0" width="512" height="512" rx="84" filter="url(#grain)" opacity="0.35" />
</svg>
