<?xml version="1.0" encoding="UTF-8"?>
<svg xmlns="http://www.w3.org/2000/svg" width="512" height="512" viewBox="0 0 512 512" role="img" aria-label="Ilustracja: Zamek Czocha">
  <defs>
    <linearGradient id="bg" x1="0" y1="0" x2="1" y2="1">
      <stop offset="0" stop-color="#081b44" />
      <stop offset="0.55" stop-color="#1e4aa5" />
      <stop offset="1" stop-color="#ff9b2f" />
    </linearGradient>
    <radialGradient id="glow" cx="78%" cy="18%" r="70%">
      <stop offset="0" stop-color="#ffd08a" stop-opacity="0.95" />
      <stop offset="0.42" stop-color="#ffd08a" stop-opacity="0.35" />
      <stop offset="1" stop-color="#ff9b2f" stop-opacity="0" />
    </radialGradient>
    <linearGradient id="vignette" x1="0" y1="0" x2="0" y2="1">
      <stop offset="0" stop-color="#0b1233" stop-opacity="0" />
      <stop offset="1" stop-color="#0b1233" stop-opacity="0.78" />
    </linearGradient>
    <linearGradient id="inkGrad" x1="0" y1="0" x2="0" y2="1">
      <stop offset="0" stop-color="#10357a" stop-opacity="0.92" />
      <stop offset="1" stop-color="#07122c" stop-opacity="1" />
    </linearGradient>
    <filter id="softShadow" x="-20%" y="-20%" width="140%" height="140%">
      <feDropShadow dx="0" dy="18" stdDeviation="14" flood-color="#000" flood-opacity="0.35" />
    </filter>
    <filter id="grain" x="-20%" y="-20%" width="140%" height="140%">
      <feTurbulence type="fractalNoise" baseFrequency="0.85" numOctaves="4" seed="54" />
      <feColorMatrix type="saturate" values="0" />
      <feComponentTransfer>
        <feFuncA type="table" tableValues="0 0.22" />
      </feComponentTransfer>
    </filter>
    <filter id="bokeh" x="-30%" y="-30%" width="160%" height="160%">
      <feGaussianBlur stdDeviation="6" />
    </filter>
  </defs>

  <rect x="0" y="0" width="512" height="512" rx="84" fill="url(#bg)" />
  <rect x="0" y="0" width="512" height="512" rx="84" fill="url(#glow)" />

  <g filter="url(#bokeh)">
    <circle cx="139" cy="150" r="29" fill="#ffd08a" opacity="0.091" />
    <circle cx="448" cy="200" r="27" fill="#ffd08a" opacity="0.186" />
    <circle cx="197" cy="72" r="32" fill="#ffd08a" opacity="0.104" />
    <circle cx="441" cy="152" r="11" fill="#ffd08a" opacity="0.182" />
    <circle cx="149" cy="88" r="30" fill="#ffd08a" opacity="0.108" />
    <circle cx="338" cy="148" r="14" fill="#ffd08a" opacity="0.115" />
    <circle cx="328" cy="191" r="24" fill="#ffd08a" opacity="0.139" />
  </g>

  <g opacity="0.92">
    <path d="M44 206c40-20 80-28 120-26 34 2 66 12 98 24 28 10 58 18 92 18 30 0 60-6 86-18v74H44z" fill="#0d2b66" opacity="0.55" />
    <path d="M44 250c48-20 94-28 138-26 36 2 70 10 102 22 30 10 60 16 94 16 28 0 54-6 78-16v90H44z" fill="#0a234f" opacity="0.48" />
  </g>

  <g filter="url(#softShadow)">
    
      <path fill="url(#inkGrad)" stroke="#fcd116" stroke-opacity="0.55" stroke-width="4" stroke-linejoin="round" d="M134 342v-52l22-14v-18l20-14v-18l22 14v18l20 14v18l22-14v52h34v-72l26-18v-20l24-16v-20l26 16v20l24 16v20l26 18v72h26v86H134v-86z"/>
      <path fill="#0b1a3a" opacity="0.9" d="M172 428h44v-48c0-12-10-22-22-22s-22 10-22 22z"/>
      <path fill="#0b1a3a" opacity="0.9" d="M300 428h44v-62c0-12-10-22-22-22s-22 10-22 22z"/>
      
      <path fill="#0b5d6a" opacity="0.42" d="M92 446c56-26 112-38 168-36 50 2 98 16 152 34 36 12 74 20 108 22v34H92z"/>
    
  </g>

  <rect x="0" y="0" width="512" height="512" rx="84" fill="url(#vignette)" />
  <rect x="0" y="0" width="512" height="512" rx="84" filter="url(#grain)" opacity="0.35" />
</svg>
