<?xml version="1.0" encoding="UTF-8"?>
<svg xmlns="http://www.w3.org/2000/svg" width="512" height="512" viewBox="0 0 512 512" role="img" aria-label="Ilustracja: Łazienki Królewskie">
  <defs>
    <linearGradient id="bg" x1="0" y1="0" x2="1" y2="1">
      <stop offset="0" stop-color="#081b44" />
      <stop offset="0.55" stop-color="#1e4aa5" />
      <stop offset="1" stop-color="#ff9b2f" />
    </linearGradient>
    <radialGradient id="glow" cx="78%" cy="18%" r="70%">
      <stop offset="0" stop-color="#ffd08a" stop-opacity="0.95" />
      <stop offset="0.42" stop-color="#ffd08a" stop-opacity="0.35" />
      <stop offset="1" stop-color="#ff9b2f" stop-opacity="0" />
    </radialGradient>
    <linearGradient id="vignette" x1="0" y1="0" x2="0" y2="1">
      <stop offset="0" stop-color="#0b1233" stop-opacity="0" />
      <stop offset="1" stop-color="#0b1233" stop-opacity="0.78" />
    </linearGradient>
    <linearGradient id="inkGrad" x1="0" y1="0" x2="0" y2="1">
      <stop offset="0" stop-color="#10357a" stop-opacity="0.92" />
      <stop offset="1" stop-color="#07122c" stop-opacity="1" />
    </linearGradient>
    <filter id="softShadow" x="-20%" y="-20%" width="140%" height="140%">
      <feDropShadow dx="0" dy="18" stdDeviation="14" flood-color="#000" flood-opacity="0.35" />
    </filter>
    <filter id="grain" x="-20%" y="-20%" width="140%" height="140%">
      <feTurbulence type="fractalNoise" baseFrequency="0.85" numOctaves="4" seed="936" />
      <feColorMatrix type="saturate" values="0" />
      <feComponentTransfer>
        <feFuncA type="table" tableValues="0 0.22" />
      </feComponentTransfer>
    </filter>
    <filter id="bokeh" x="-30%" y="-30%" width="160%" height="160%">
      <feGaussianBlur stdDeviation="6" />
    </filter>
  </defs>

  <rect x="0" y="0" width="512" height="512" rx="84" fill="url(#bg)" />
  <rect x="0" y="0" width="512" height="512" rx="84" fill="url(#glow)" />

  <g filter="url(#bokeh)">
    <circle cx="429" cy="68" r="20" fill="#ffd08a" opacity="0.174" />
    <circle cx="361" cy="143" r="13" fill="#ffd08a" opacity="0.113" />
    <circle cx="236" cy="150" r="28" fill="#ffd08a" opacity="0.106" />
    <circle cx="191" cy="234" r="16" fill="#ffd08a" opacity="0.093" />
    <circle cx="357" cy="191" r="14" fill="#ffd08a" opacity="0.094" />
    <circle cx="338" cy="144" r="15" fill="#ffd08a" opacity="0.098" />
    <circle cx="451" cy="94" r="14" fill="#ffd08a" opacity="0.134" />
  </g>

  <g opacity="0.92">
    <path d="M44 206c40-20 80-28 120-26 34 2 66 12 98 24 28 10 58 18 92 18 30 0 60-6 86-18v74H44z" fill="#0d2b66" opacity="0.55" />
    <path d="M44 250c48-20 94-28 138-26 36 2 70 10 102 22 30 10 60 16 94 16 28 0 54-6 78-16v90H44z" fill="#0a234f" opacity="0.48" />
  </g>

  <g filter="url(#softShadow)">
    
      <path fill="url(#inkGrad)" stroke="#fcd116" stroke-opacity="0.55" stroke-width="4" stroke-linejoin="round" d="M120 428v-90h40v-26l24-18v-26l72-44 72 44v26l24 18v26h40v90H120z"/>
      <path fill="#0b1a3a" opacity="0.9" d="M232 428v-60c0-18 14-32 32-32s32 14 32 32v60z"/>
      <path fill="#0b5d6a" opacity="0.38" d="M92 452c58-24 118-34 180-30 50 3 98 14 148 30v60H92z"/>
      <path fill="none" stroke="#fcd116" stroke-opacity="0.35" stroke-width="3" d="M92 456c58-24 118-34 180-30 50 3 98 14 148 30"/>
      <path fill="url(#inkGrad)" opacity="0.75" d="M156 360c-20 10-34 26-42 48h54c-4-18-6-34-12-48z"/>
      <path fill="url(#inkGrad)" opacity="0.75" d="M356 360c20 10 34 26 42 48h-54c4-18 6-34 12-48z"/>
    
  </g>

  <rect x="0" y="0" width="512" height="512" rx="84" fill="url(#vignette)" />
  <rect x="0" y="0" width="512" height="512" rx="84" filter="url(#grain)" opacity="0.35" />
</svg>
