<?xml version="1.0" encoding="UTF-8"?>
<svg xmlns="http://www.w3.org/2000/svg" width="512" height="512" viewBox="0 0 512 512" role="img" aria-label="Ilustracja: Pałac Kultury i Nauki">
  <defs>
    <linearGradient id="bg" x1="0" y1="0" x2="1" y2="1">
      <stop offset="0" stop-color="#07122c" />
      <stop offset="0.55" stop-color="#2e4aa8" />
      <stop offset="1" stop-color="#fcd116" />
    </linearGradient>
    <radialGradient id="glow" cx="78%" cy="18%" r="70%">
      <stop offset="0" stop-color="#fff2b0" stop-opacity="0.95" />
      <stop offset="0.42" stop-color="#fff2b0" stop-opacity="0.35" />
      <stop offset="1" stop-color="#fcd116" stop-opacity="0" />
    </radialGradient>
    <linearGradient id="vignette" x1="0" y1="0" x2="0" y2="1">
      <stop offset="0" stop-color="#0b1233" stop-opacity="0" />
      <stop offset="1" stop-color="#0b1233" stop-opacity="0.78" />
    </linearGradient>
    <linearGradient id="inkGrad" x1="0" y1="0" x2="0" y2="1">
      <stop offset="0" stop-color="#10357a" stop-opacity="0.92" />
      <stop offset="1" stop-color="#07122c" stop-opacity="1" />
    </linearGradient>
    <filter id="softShadow" x="-20%" y="-20%" width="140%" height="140%">
      <feDropShadow dx="0" dy="18" stdDeviation="14" flood-color="#000" flood-opacity="0.35" />
    </filter>
    <filter id="grain" x="-20%" y="-20%" width="140%" height="140%">
      <feTurbulence type="fractalNoise" baseFrequency="0.85" numOctaves="4" seed="791" />
      <feColorMatrix type="saturate" values="0" />
      <feComponentTransfer>
        <feFuncA type="table" tableValues="0 0.22" />
      </feComponentTransfer>
    </filter>
    <filter id="bokeh" x="-30%" y="-30%" width="160%" height="160%">
      <feGaussianBlur stdDeviation="6" />
    </filter>
  </defs>

  <rect x="0" y="0" width="512" height="512" rx="84" fill="url(#bg)" />
  <rect x="0" y="0" width="512" height="512" rx="84" fill="url(#glow)" />

  <g filter="url(#bokeh)">
    <circle cx="284" cy="201" r="26" fill="#fff2b0" opacity="0.097" />
    <circle cx="302" cy="229" r="36" fill="#fff2b0" opacity="0.141" />
    <circle cx="248" cy="155" r="25" fill="#fff2b0" opacity="0.117" />
    <circle cx="165" cy="128" r="18" fill="#fff2b0" opacity="0.129" />
    <circle cx="371" cy="140" r="34" fill="#fff2b0" opacity="0.158" />
    <circle cx="378" cy="79" r="27" fill="#fff2b0" opacity="0.090" />
    <circle cx="229" cy="86" r="12" fill="#fff2b0" opacity="0.110" />
  </g>

  <g opacity="0.92">
    <path d="M44 206c40-20 80-28 120-26 34 2 66 12 98 24 28 10 58 18 92 18 30 0 60-6 86-18v74H44z" fill="#0d2b66" opacity="0.55" />
    <path d="M44 250c48-20 94-28 138-26 36 2 70 10 102 22 30 10 60 16 94 16 28 0 54-6 78-16v90H44z" fill="#0a234f" opacity="0.48" />
  </g>

  <g filter="url(#softShadow)">
    
      <path fill="url(#inkGrad)" stroke="#fcd116" stroke-opacity="0.55" stroke-width="4" stroke-linejoin="round" d="M160 428v-168l28-18v-28l24-18v-28l44-28v-26l44 26v28l24 18v28l28 18v168H160z"/>
      <path fill="none" stroke="#fcd116" stroke-opacity="0.55" stroke-width="4" d="M256 118v-28"/>
      <path fill="url(#inkGrad)" opacity="0.82" d="M198 416h32v-22h-32zm0-34h32v-22h-32zm84 34h32v-22h-32zm0-34h32v-22h-32z"/>
      <path fill="url(#inkGrad)" opacity="0.82" d="M198 348h32v-22h-32zm84 0h32v-22h-32z"/>
    
  </g>

  <rect x="0" y="0" width="512" height="512" rx="84" fill="url(#vignette)" />
  <rect x="0" y="0" width="512" height="512" rx="84" filter="url(#grain)" opacity="0.35" />
</svg>
