<svg class="w-72 h-72 mx-auto drop-shadow-2xl" viewbox="0 0 200 200" xmlns="http://www.w3.org/2000/svg"><defs>
         <lineargradient id="cupGradient" x1="0%" y1="0%" x2="0%" y2="100%">
          <stop offset="0%" style="stop-color:#8B4513;stop-opacity:1" />
          <stop offset="100%" style="stop-color:#654321;stop-opacity:1" />
         </lineargradient>
         <lineargradient id="coffeeGradient" x1="0%" y1="0%" x2="0%" y2="100%">
          <stop offset="0%" style="stop-color:#6F4E37;stop-opacity:1" />
          <stop offset="100%" style="stop-color:#3E2723;stop-opacity:1" />
         </lineargradient>
        </defs> <ellipse cx="100" cy="55" rx="70" ry="15" fill="#FCD116" opacity="0.3" /> <ellipse cx="100" cy="55" rx="60" ry="12" fill="#003893" opacity="0.3" /> <ellipse cx="100" cy="55" rx="50" ry="10" fill="#FCD116" opacity="0.3" /> <rect x="85" y="55" width="30" height="25" rx="5" fill="#FCD116" opacity="0.3" /> <path d="M 60 120 L 65 160 Q 65 170 75 170 L 125 170 Q 135 170 135 160 L 140 120 Z" fill="url(#cupGradient)" stroke="#654321" stroke-width="2" /> <ellipse cx="100" cy="120" rx="35" ry="8" fill="url(#coffeeGradient)" /> <path d="M 140 130 Q 155 130 155 145 Q 155 160 140 160" fill="none" stroke="url(#cupGradient)" stroke-width="8" stroke-linecap="round" /> <rect x="70" y="135" width="60" height="8" fill="#FCD116" opacity="0.6" rx="2" /> <rect x="70" y="145" width="60" height="5" fill="#003893" opacity="0.6" rx="1" /> <rect x="70" y="152" width="60" height="5" fill="#CE1126" opacity="0.6" rx="1" /> <path d="M 85 110 Q 80 95 85 85" fill="none" stroke="#FCD116" stroke-width="3" stroke-linecap="round" opacity="0.7">
         <animate attributename="opacity" values="0.7;0.3;0.7" dur="2s" repeatcount="indefinite" />
         <animate attributename="d" values="M 85 110 Q 80 95 85 85;M 85 110 Q 90 95 85 85;M 85 110 Q 80 95 85 85" dur="2s" repeatcount="indefinite" />
        </path> <path d="M 100 108 Q 100 90 105 80" fill="none" stroke="#FCD116" stroke-width="4" stroke-linecap="round" opacity="0.8">
         <animate attributename="opacity" values="0.8;0.4;0.8" dur="2.5s" repeatcount="indefinite" />
         <animate attributename="d" values="M 100 108 Q 100 90 105 80;M 100 108 Q 105 90 100 80;M 100 108 Q 100 90 105 80" dur="2.5s" repeatcount="indefinite" />
        </path> <path d="M 115 110 Q 120 95 115 85" fill="none" stroke="#FCD116" stroke-width="3" stroke-linecap="round" opacity="0.7">
         <animate attributename="opacity" values="0.7;0.3;0.7" dur="2.2s" repeatcount="indefinite" />
         <animate attributename="d" values="M 115 110 Q 120 95 115 85;M 115 110 Q 110 95 115 85;M 115 110 Q 120 95 115 85" dur="2.2s" repeatcount="indefinite" />
        </path> <ellipse cx="50" cy="140" rx="8" ry="10" fill="#3E2723" transform="rotate(-20 50 140)">
         <animate attributename="opacity" values="1;0.7;1" dur="3s" repeatcount="indefinite" />
        </ellipse> <path d="M 50 135 Q 50 140 50 145" stroke="#654321" stroke-width="1.5" /> <ellipse cx="150" cy="135" rx="8" ry="10" fill="#3E2723" transform="rotate(20 150 135)">
         <animate attributename="opacity" values="0.7;1;0.7" dur="3s" repeatcount="indefinite" />
        </ellipse> <path d="M 150 130 Q 150 135 150 140" stroke="#654321" stroke-width="1.5" /> <rect x="70" y="175" width="60" height="8" fill="#FCD116" rx="1" opacity="0.9" /> <rect x="75" y="178" width="50" height="8" fill="#FFFFFF" rx="1" opacity="0.8" /> <rect x="80" y="181" width="40" height="8" fill="#FCD116" rx="1" opacity="0.7" /> <path d="M 100 100 L 95 95 Q 90 90 90 95 Q 90 100 95 105 L 100 110 L 105 105 Q 110 100 110 95 Q 110 90 105 95 Z" fill="#CE1126" opacity="0.8">
         <animate attributename="transform" values="translate(0,0) scale(1);translate(0,-3) scale(1.1);translate(0,0) scale(1)" dur="1.5s" repeatcount="indefinite" />
        </path>
       </svg>
